<svg version="1.1" id="Layer_1" xmlns="http://www.w3.org/2000/svg" xmlns:xlink="http://www.w3.org/1999/xlink" x="0px" y="0px"
	 width="100%" viewBox="0 0 1394 1438" enable-background="new 0 0 1394 1438" xml:space="preserve">
<path fill="#FEFEFE" opacity="1.000000" stroke="none" 
	d="
M911.000000,1439.000000 
	C607.333374,1439.000000 304.166779,1439.000000 1.000122,1439.000000 
	C1.000081,959.666809 1.000081,480.333618 1.000041,1.000315 
	C465.666473,1.000210 930.332947,1.000210 1394.999512,1.000105 
	C1394.999756,480.333008 1394.999756,959.666016 1394.999878,1438.999512 
	C1233.833374,1439.000000 1072.666626,1439.000000 911.000000,1439.000000 
M1131.515991,1208.021240 
	C1160.432983,1184.577393 1185.449463,1157.525513 1206.098022,1126.550171 
	C1236.751099,1080.566528 1256.319580,1030.300049 1264.309692,975.504150 
	C1269.856445,937.465088 1269.704346,899.494202 1263.505493,861.639099 
	C1256.948364,821.596008 1244.042725,783.602356 1224.786865,747.802429 
	C1196.244141,694.736450 1157.065430,651.257141 1107.282593,617.376465 
	C1103.364502,614.709961 1102.930176,612.959351 1105.382446,608.863525 
	C1114.779297,593.168762 1124.924683,577.755737 1132.550903,561.205383 
	C1144.783081,534.659546 1152.007324,506.382172 1156.490601,477.466431 
	C1163.235474,433.963196 1161.744751,390.754944 1150.560425,348.156677 
	C1134.517700,287.053894 1102.574829,235.534637 1055.166626,193.759262 
	C1020.217285,162.962479 980.337769,141.002029 935.604736,127.802467 
	C908.957153,119.939423 881.855774,114.787033 854.057861,114.770302 
	C635.902161,114.639023 417.746277,114.691841 199.590469,114.701775 
	C190.975082,114.702164 191.797348,113.816048 191.795929,122.444130 
	C191.774261,253.104294 191.764481,383.764465 191.782211,514.424622 
	C191.783279,522.249756 191.991592,530.076111 192.185776,537.899841 
	C192.975922,569.735229 200.893295,599.947449 215.782776,627.846924 
	C252.660568,696.947693 309.852356,738.314453 387.589844,750.394775 
	C416.176178,754.837097 444.414124,752.888306 471.790131,743.296326 
	C512.789001,728.931152 541.683655,701.424988 557.237244,660.872681 
	C570.482727,626.338196 575.736877,590.136475 575.945190,553.248535 
	C576.179626,511.728668 568.848145,471.494293 553.999756,431.979767 
	C562.749268,428.599609 571.443115,425.240936 580.444946,421.763275 
	C615.119690,507.202362 673.266052,569.989014 757.244934,607.258118 
	C841.066650,644.457581 926.622314,645.608704 1012.823547,614.680359 
	C1015.661499,621.943726 1018.221252,628.440430 1020.738708,634.953369 
	C1023.160889,641.219788 1023.063477,641.047485 1016.730469,643.801392 
	C988.295166,656.166626 961.045044,670.435852 936.616760,689.958130 
	C907.473816,713.248291 882.456116,740.103577 862.002991,771.259827 
	C838.815002,806.581970 822.829956,844.918640 814.669983,886.366211 
	C809.121338,914.549500 807.067139,943.045593 808.748596,971.796997 
	C810.035950,993.809265 813.158142,1015.506470 818.969971,1036.770142 
	C822.249695,1048.769653 826.000427,1060.640381 829.752625,1073.289307 
	C821.151917,1076.577881 812.440796,1079.908691 803.699219,1083.251221 
	C802.746521,1081.180420 802.061890,1079.856079 801.513977,1078.477417 
	C786.532959,1040.782959 764.728699,1007.667480 734.518311,980.475464 
	C685.181030,936.067505 627.339417,911.569763 560.943115,907.765015 
	C526.154114,905.771545 492.138000,910.181213 459.185669,921.525452 
	C410.329651,938.344604 368.565552,966.522705 331.820068,1002.449768 
	C296.430786,1037.050659 267.885803,1076.690796 244.919647,1120.493164 
	C219.880402,1168.249512 203.797653,1218.832642 196.037598,1272.122437 
	C195.235123,1277.633057 194.779114,1283.194336 194.095108,1289.335693 
	C196.762405,1289.335693 198.727585,1289.335571 200.692764,1289.335571 
	C434.181152,1289.337036 667.669617,1289.278564 901.157898,1289.407349 
	C934.690491,1289.425903 967.482483,1284.997559 999.748413,1276.012695 
	C1048.156738,1262.532593 1091.803589,1239.872559 1131.515991,1208.021240 
z"/>
<path fill="#010101" opacity="1.000000" stroke="none" 
	d="
M1131.246582,1208.252319 
	C1091.803589,1239.872559 1048.156738,1262.532593 999.748413,1276.012695 
	C967.482483,1284.997559 934.690491,1289.425903 901.157898,1289.407349 
	C667.669617,1289.278564 434.181152,1289.337036 200.692764,1289.335571 
	C198.727585,1289.335571 196.762405,1289.335693 194.095108,1289.335693 
	C194.779114,1283.194336 195.235123,1277.633057 196.037598,1272.122437 
	C203.797653,1218.832642 219.880402,1168.249512 244.919647,1120.493164 
	C267.885803,1076.690796 296.430786,1037.050659 331.820068,1002.449768 
	C368.565552,966.522705 410.329651,938.344604 459.185669,921.525452 
	C492.138000,910.181213 526.154114,905.771545 560.943115,907.765015 
	C627.339417,911.569763 685.181030,936.067505 734.518311,980.475464 
	C764.728699,1007.667480 786.532959,1040.782959 801.513977,1078.477417 
	C802.061890,1079.856079 802.746521,1081.180420 803.699219,1083.251221 
	C812.440796,1079.908691 821.151917,1076.577881 829.752625,1073.289307 
	C826.000427,1060.640381 822.249695,1048.769653 818.969971,1036.770142 
	C813.158142,1015.506470 810.035950,993.809265 808.748596,971.796997 
	C807.067139,943.045593 809.121338,914.549500 814.669983,886.366211 
	C822.829956,844.918640 838.815002,806.581970 862.002991,771.259827 
	C882.456116,740.103577 907.473816,713.248291 936.616760,689.958130 
	C961.045044,670.435852 988.295166,656.166626 1016.730469,643.801392 
	C1023.063477,641.047485 1023.160889,641.219788 1020.738708,634.953369 
	C1018.221252,628.440430 1015.661499,621.943726 1012.823547,614.680359 
	C926.622314,645.608704 841.066650,644.457581 757.244934,607.258118 
	C673.266052,569.989014 615.119690,507.202362 580.444946,421.763275 
	C571.443115,425.240936 562.749268,428.599609 553.999756,431.979767 
	C568.848145,471.494293 576.179626,511.728668 575.945190,553.248535 
	C575.736877,590.136475 570.482727,626.338196 557.237244,660.872681 
	C541.683655,701.424988 512.789001,728.931152 471.790131,743.296326 
	C444.414124,752.888306 416.176178,754.837097 387.589844,750.394775 
	C309.852356,738.314453 252.660568,696.947693 215.782776,627.846924 
	C200.893295,599.947449 192.975922,569.735229 192.185776,537.899841 
	C191.991592,530.076111 191.783279,522.249756 191.782211,514.424622 
	C191.764481,383.764465 191.774261,253.104294 191.795929,122.444130 
	C191.797348,113.816048 190.975082,114.702164 199.590469,114.701775 
	C417.746277,114.691841 635.902161,114.639023 854.057861,114.770302 
	C881.855774,114.787033 908.957153,119.939423 935.604736,127.802467 
	C980.337769,141.002029 1020.217285,162.962479 1055.166626,193.759262 
	C1102.574829,235.534637 1134.517700,287.053894 1150.560425,348.156677 
	C1161.744751,390.754944 1163.235474,433.963196 1156.490601,477.466431 
	C1152.007324,506.382172 1144.783081,534.659546 1132.550903,561.205383 
	C1124.924683,577.755737 1114.779297,593.168762 1105.382446,608.863525 
	C1102.930176,612.959351 1103.364502,614.709961 1107.282593,617.376465 
	C1157.065430,651.257141 1196.244141,694.736450 1224.786865,747.802429 
	C1244.042725,783.602356 1256.948364,821.596008 1263.505493,861.639099 
	C1269.704346,899.494202 1269.856445,937.465088 1264.309692,975.504150 
	C1256.319580,1030.300049 1236.751099,1080.566528 1206.098022,1126.550171 
	C1185.449463,1157.525513 1160.432983,1184.577393 1131.246582,1208.252319 
z"/>
</svg>