<svg viewBox="0 0 200 170" xmlns="http://www.w3.org/2000/svg">
  <path
    d="M90.039 12.368L24.079 39.66c-3.667 1.519-3.63 6.729.062 8.192l66.235 26.266a24.58 24.58 0 0 0 17.913 0l66.236-26.266c3.69-1.463 3.729-6.673.06-8.191l-65.958-27.293a24.58 24.58 0 0 0-18.588 0z"
    fill="#FFBF00"
  />
  <path
    d="M105.312 88.46v65.617c0 3.12 3.147 5.258 6.048 4.108l73.806-28.648a4.42 4.42 0 0 0 2.79-4.108V59.813c0-3.121-3.147-5.258-6.048-4.108l-73.806 28.648a4.42 4.42 0 0 0-2.79 4.108z"
    fill="#26B5F8"
  />
  <path
    d="M88.078 91.846l-21.904 10.576-2.224 1.075-46.238 22.155c-2.93 1.414-6.672-.722-6.672-3.978V60.088c0-1.178.604-2.195 1.414-2.96a5.09 5.09 0 0 1 1.469-.853c1.165-.49 2.605-.48 3.752.09l67.885 33.005c.604.292 1.09.792 1.36 1.36.722 1.414.143 3.074-1.262 3.674a3.03 3.03 0 0 1-.58.24z"
    fill="#ED3049"
  />
  <path
    d="M88.078 91.846l-21.904 10.576-53.72-27.9a5.09 5.09 0 0 1 1.469-.852c1.165-.49 2.605-.48 3.752.09l67.885 33.004c.604.292 1.09.792 1.36 1.36-1.09-.376-1.467-.907-.842 1.722z"
    fill-opacity=".25"
  />
</svg>
