<svg xmlns="http://www.w3.org/2000/svg" viewBox="0 0 24 24" fill="none">
  <path d="M17.5 8.5V6.5C17.5 5.4 16.6 4.5 15.5 4.5C14.4 4.5 13.5 5.4 13.5 6.5V8.5C12.1 9.1 11.1 10.5 11.1 12.1C11.1 14.3 12.9 16.1 15.1 16.1C15.6 16.1 16.1 16 16.5 15.8L18.5 17.8C18.7 18 19 18.1 19.3 18.1C19.9 18.1 20.4 17.6 20.4 17C20.4 16.7 20.3 16.4 20.1 16.2L18.1 14.2C18.6 13.5 18.9 12.6 18.9 11.7C18.9 10.3 18.1 9.1 17 8.5H17.5ZM15.5 14C14.4 14 13.5 13.1 13.5 12C13.5 10.9 14.4 10 15.5 10C16.6 10 17.5 10.9 17.5 12C17.5 13.1 16.6 14 15.5 14Z" fill="#FF7A59"/>
  <path d="M9.5 12C9.5 9.5 10.8 7.3 12.8 6.1V4.5C12.8 3.1 13.9 2 15.3 2C15.4 2 15.5 2 15.6 2V2C15.5 2 15.4 2 15.3 2C11.5 2 8.3 4.6 7.4 8.1L4.8 6.6C4.5 6.4 4.1 6.5 3.9 6.8C3.7 7.1 3.8 7.5 4.1 7.7L6.7 9.2C6.3 10.1 6.1 11 6.1 12C6.1 13 6.3 13.9 6.7 14.8L4.1 16.3C3.8 16.5 3.7 16.9 3.9 17.2C4.1 17.5 4.5 17.6 4.8 17.4L7.4 15.9C8.3 19.4 11.5 22 15.3 22C15.4 22 15.5 22 15.6 22C13.9 22 12.8 20.9 12.8 19.5V17.9C10.8 16.7 9.5 14.5 9.5 12Z" fill="#FF7A59"/>
</svg>
